<svg xmlns="http://www.w3.org/2000/svg" xmlns:xlink="http://www.w3.org/1999/xlink" version="1.1" class="marks" width="444" height="364" viewBox="0 0 444 364"><rect width="444" height="364" fill="white"/><g fill="none" stroke-miterlimit="10" transform="translate(39,27)"><g class="mark-group role-frame root" role="graphics-object" aria-roledescription="group mark container"><g transform="translate(0,0)"><path class="background" aria-hidden="true" d="M0.5,0.5h400v300h-400Z" stroke="#ddd"/><g><g class="mark-group role-axis" aria-hidden="true"><g transform="translate(0.5,0.5)"><path class="background" aria-hidden="true" d="M0,0h0v0h0Z" pointer-events="none"/><g><g class="mark-rule role-axis-grid" pointer-events="none"><line transform="translate(0,300)" x2="400" y2="0" stroke="#ddd" stroke-width="1" opacity="1"/><line transform="translate(0,270)" x2="400" y2="0" stroke="#ddd" stroke-width="1" opacity="1"/><line transform="translate(0,240)" x2="400" y2="0" stroke="#ddd" stroke-width="1" opacity="1"/><line transform="translate(0,210)" x2="400" y2="0" stroke="#ddd" stroke-width="1" opacity="1"/><line transform="translate(0,180)" x2="400" y2="0" stroke="#ddd" stroke-width="1" opacity="1"/><line transform="translate(0,150)" x2="400" y2="0" stroke="#ddd" stroke-width="1" opacity="1"/><line transform="translate(0,120)" x2="400" y2="0" stroke="#ddd" stroke-width="1" opacity="1"/><line transform="translate(0,90)" x2="400" y2="0" stroke="#ddd" stroke-width="1" opacity="1"/><line transform="translate(0,60)" x2="400" y2="0" stroke="#ddd" stroke-width="1" opacity="1"/><line transform="translate(0,30)" x2="400" y2="0" stroke="#ddd" stroke-width="1" opacity="1"/><line transform="translate(0,0)" x2="400" y2="0" stroke="#ddd" stroke-width="1" opacity="1"/></g></g><path class="foreground" aria-hidden="true" d="" pointer-events="none" display="none"/></g></g><g class="mark-group role-axis" role="graphics-symbol" aria-roledescription="axis" aria-label="X-axis titled 'State' for a discrete scale with 20 values: AL, HI, RI, MS, MI, ending with WY"><g transform="translate(0.5,300.5)"><path class="background" aria-hidden="true" d="M0,0h0v0h0Z" pointer-events="none"/><g><g class="mark-rule role-axis-tick" pointer-events="none"><line transform="translate(10,0)" x2="0" y2="5" stroke="#888" stroke-width="1" opacity="1"/><line transform="translate(30,0)" x2="0" y2="5" stroke="#888" stroke-width="1" opacity="1"/><line transform="translate(50,0)" x2="0" y2="5" stroke="#888" stroke-width="1" opacity="1"/><line transform="translate(70,0)" x2="0" y2="5" stroke="#888" stroke-width="1" opacity="1"/><line transform="translate(90,0)" x2="0" y2="5" stroke="#888" stroke-width="1" opacity="1"/><line transform="translate(110,0)" x2="0" y2="5" stroke="#888" stroke-width="1" opacity="1"/><line transform="translate(130,0)" x2="0" y2="5" stroke="#888" stroke-width="1" opacity="1"/><line transform="translate(150,0)" x2="0" y2="5" stroke="#888" stroke-width="1" opacity="1"/><line transform="translate(170,0)" x2="0" y2="5" stroke="#888" stroke-width="1" opacity="1"/><line transform="translate(190,0)" x2="0" y2="5" stroke="#888" stroke-width="1" opacity="1"/><line transform="translate(210,0)" x2="0" y2="5" stroke="#888" stroke-width="1" opacity="1"/><line transform="translate(230,0)" x2="0" y2="5" stroke="#888" stroke-width="1" opacity="1"/><line transform="translate(250,0)" x2="0" y2="5" stroke="#888" stroke-width="1" opacity="1"/><line transform="translate(270,0)" x2="0" y2="5" stroke="#888" stroke-width="1" opacity="1"/><line transform="translate(290,0)" x2="0" y2="5" stroke="#888" stroke-width="1" opacity="1"/><line transform="translate(310,0)" x2="0" y2="5" stroke="#888" stroke-width="1" opacity="1"/><line transform="translate(330,0)" x2="0" y2="5" stroke="#888" stroke-width="1" opacity="1"/><line transform="translate(350,0)" x2="0" y2="5" stroke="#888" stroke-width="1" opacity="1"/><line transform="translate(370,0)" x2="0" y2="5" stroke="#888" stroke-width="1" opacity="1"/><line transform="translate(390,0)" x2="0" y2="5" stroke="#888" stroke-width="1" opacity="1"/></g><g class="mark-text role-axis-label" pointer-events="none"><text text-anchor="middle" transform="translate(9.5,15)" font-family="sans-serif" font-size="10px" fill="#000" opacity="1">AL</text><text text-anchor="middle" transform="translate(29.5,15)" font-family="sans-serif" font-size="10px" fill="#000" opacity="1">HI</text><text text-anchor="middle" transform="translate(49.5,15)" font-family="sans-serif" font-size="10px" fill="#000" opacity="1">RI</text><text text-anchor="middle" transform="translate(69.5,15)" font-family="sans-serif" font-size="10px" fill="#000" opacity="1">MS</text><text text-anchor="middle" transform="translate(89.5,15)" font-family="sans-serif" font-size="10px" fill="#000" opacity="1">MI</text><text text-anchor="middle" transform="translate(109.5,15)" font-family="sans-serif" font-size="10px" fill="#000" opacity="1">OK</text><text text-anchor="middle" transform="translate(129.5,15)" font-family="sans-serif" font-size="10px" fill="#000" opacity="1">NC</text><text text-anchor="middle" transform="translate(149.5,15)" font-family="sans-serif" font-size="10px" fill="#000" opacity="1">NM</text><text text-anchor="middle" transform="translate(169.5,15)" font-family="sans-serif" font-size="10px" fill="#000" opacity="1">NJ</text><text text-anchor="middle" transform="translate(189.5,15)" font-family="sans-serif" font-size="10px" fill="#000" opacity="1">TN</text><text text-anchor="middle" transform="translate(209.5,15)" font-family="sans-serif" font-size="10px" fill="#000" opacity="1">MO</text><text text-anchor="middle" transform="translate(229.5,15)" font-family="sans-serif" font-size="10px" fill="#000" opacity="1">AZ</text><text text-anchor="middle" transform="translate(249.5,15)" font-family="sans-serif" font-size="10px" fill="#000" opacity="1">WI</text><text text-anchor="middle" transform="translate(269.5,15)" font-family="sans-serif" font-size="10px" fill="#000" opacity="1">AK</text><text text-anchor="middle" transform="translate(289.5,15)" font-family="sans-serif" font-size="10px" fill="#000" opacity="1">NH</text><text text-anchor="middle" transform="translate(309.5,15)" font-family="sans-serif" font-size="10px" fill="#000" opacity="1">MT</text><text text-anchor="middle" transform="translate(329.5,15)" font-family="sans-serif" font-size="10px" fill="#000" opacity="1">ID</text><text text-anchor="middle" transform="translate(349.5,15)" font-family="sans-serif" font-size="10px" fill="#000" opacity="1">IN</text><text text-anchor="middle" transform="translate(369.5,15)" font-family="sans-serif" font-size="10px" fill="#000" opacity="1">SD</text><text text-anchor="middle" transform="translate(389.5,15)" font-family="sans-serif" font-size="10px" fill="#000" opacity="1">WY</text></g><g class="mark-rule role-axis-domain" pointer-events="none"><line transform="translate(0,0)" x2="400" y2="0" stroke="#888" stroke-width="1" opacity="1"/></g><g class="mark-text role-axis-title" pointer-events="none"><text text-anchor="middle" transform="translate(200,30)" font-family="sans-serif" font-size="11px" font-weight="bold" fill="#000" opacity="1">State</text></g></g><path class="foreground" aria-hidden="true" d="" pointer-events="none" display="none"/></g></g><g class="mark-group role-axis" role="graphics-symbol" aria-roledescription="axis" aria-label="Y-axis titled 'Standards Met' for a linear scale with values from 0 to 10"><g transform="translate(0.5,0.5)"><path class="background" aria-hidden="true" d="M0,0h0v0h0Z" pointer-events="none"/><g><g class="mark-rule role-axis-tick" pointer-events="none"><line transform="translate(0,300)" x2="-5" y2="0" stroke="#888" stroke-width="1" opacity="1"/><line transform="translate(0,270)" x2="-5" y2="0" stroke="#888" stroke-width="1" opacity="1"/><line transform="translate(0,240)" x2="-5" y2="0" stroke="#888" stroke-width="1" opacity="1"/><line transform="translate(0,210)" x2="-5" y2="0" stroke="#888" stroke-width="1" opacity="1"/><line transform="translate(0,180)" x2="-5" y2="0" stroke="#888" stroke-width="1" opacity="1"/><line transform="translate(0,150)" x2="-5" y2="0" stroke="#888" stroke-width="1" opacity="1"/><line transform="translate(0,120)" x2="-5" y2="0" stroke="#888" stroke-width="1" opacity="1"/><line transform="translate(0,90)" x2="-5" y2="0" stroke="#888" stroke-width="1" opacity="1"/><line transform="translate(0,60)" x2="-5" y2="0" stroke="#888" stroke-width="1" opacity="1"/><line transform="translate(0,30)" x2="-5" y2="0" stroke="#888" stroke-width="1" opacity="1"/><line transform="translate(0,0)" x2="-5" y2="0" stroke="#888" stroke-width="1" opacity="1"/></g><g class="mark-text role-axis-label" pointer-events="none"><text text-anchor="end" transform="translate(-7,303)" font-family="sans-serif" font-size="10px" fill="#000" opacity="1">0</text><text text-anchor="end" transform="translate(-7,273)" font-family="sans-serif" font-size="10px" fill="#000" opacity="1">1</text><text text-anchor="end" transform="translate(-7,243)" font-family="sans-serif" font-size="10px" fill="#000" opacity="1">2</text><text text-anchor="end" transform="translate(-7,213)" font-family="sans-serif" font-size="10px" fill="#000" opacity="1">3</text><text text-anchor="end" transform="translate(-7,183)" font-family="sans-serif" font-size="10px" fill="#000" opacity="1">4</text><text text-anchor="end" transform="translate(-7,153)" font-family="sans-serif" font-size="10px" fill="#000" opacity="1">5</text><text text-anchor="end" transform="translate(-7,123)" font-family="sans-serif" font-size="10px" fill="#000" opacity="1">6</text><text text-anchor="end" transform="translate(-7,93.00000000000001)" font-family="sans-serif" font-size="10px" fill="#000" opacity="1">7</text><text text-anchor="end" transform="translate(-7,62.999999999999986)" font-family="sans-serif" font-size="10px" fill="#000" opacity="1">8</text><text text-anchor="end" transform="translate(-7,32.99999999999999)" font-family="sans-serif" font-size="10px" fill="#000" opacity="1">9</text><text text-anchor="end" transform="translate(-7,3)" font-family="sans-serif" font-size="10px" fill="#000" opacity="1">10</text></g><g class="mark-rule role-axis-domain" pointer-events="none"><line transform="translate(0,300)" x2="0" y2="-300" stroke="#888" stroke-width="1" opacity="1"/></g><g class="mark-text role-axis-title" pointer-events="none"><text text-anchor="middle" transform="translate(-22.123046875,150) rotate(-90) translate(0,-2)" font-family="sans-serif" font-size="11px" font-weight="bold" fill="#000" opacity="1">Standards Met</text></g></g><path class="foreground" aria-hidden="true" d="" pointer-events="none" display="none"/></g></g><g class="mark-rect role-mark marks" role="graphics-object" aria-roledescription="rect mark container"><path aria-label="State: AL; Standards Met: 10; placement: High" role="graphics-symbol" aria-roledescription="bar" d="M1,0h18v300h-18Z" fill="#4c78a8"/><path aria-label="State: HI; Standards Met: 10; placement: High" role="graphics-symbol" aria-roledescription="bar" d="M21,0h18v300h-18Z" fill="#4c78a8"/><path aria-label="State: RI; Standards Met: 10; placement: High" role="graphics-symbol" aria-roledescription="bar" d="M41,0h18v300h-18Z" fill="#4c78a8"/><path aria-label="State: MS; Standards Met: 10; placement: High" role="graphics-symbol" aria-roledescription="bar" d="M61,0h18v300h-18Z" fill="#4c78a8"/><path aria-label="State: MI; Standards Met: 10; placement: High" role="graphics-symbol" aria-roledescription="bar" d="M81,0h18v300h-18Z" fill="#4c78a8"/><path aria-label="State: OK; Standards Met: 9; placement: High" role="graphics-symbol" aria-roledescription="bar" d="M101,29.999999999999993h18v270h-18Z" fill="#4c78a8"/><path aria-label="State: NC; Standards Met: 9; placement: High" role="graphics-symbol" aria-roledescription="bar" d="M121,29.999999999999993h18v270h-18Z" fill="#4c78a8"/><path aria-label="State: NM; Standards Met: 9; placement: High" role="graphics-symbol" aria-roledescription="bar" d="M141,29.999999999999993h18v270h-18Z" fill="#4c78a8"/><path aria-label="State: NJ; Standards Met: 9; placement: High" role="graphics-symbol" aria-roledescription="bar" d="M161,29.999999999999993h18v270h-18Z" fill="#4c78a8"/><path aria-label="State: TN; Standards Met: 9; placement: High" role="graphics-symbol" aria-roledescription="bar" d="M181,29.999999999999993h18v270h-18Z" fill="#4c78a8"/><path aria-label="State: MO; Standards Met: 4; placement: Low" role="graphics-symbol" aria-roledescription="bar" d="M201,180h18v120h-18Z" fill="#f58518"/><path aria-label="State: AZ; Standards Met: 3; placement: Low" role="graphics-symbol" aria-roledescription="bar" d="M221,210h18v90h-18Z" fill="#f58518"/><path aria-label="State: WI; Standards Met: 2; placement: Low" role="graphics-symbol" aria-roledescription="bar" d="M241,240h18v60h-18Z" fill="#f58518"/><path aria-label="State: AK; Standards Met: 2; placement: Low" role="graphics-symbol" aria-roledescription="bar" d="M261,240h18v60h-18Z" fill="#f58518"/><path aria-label="State: NH; Standards Met: 0; placement: Low" role="graphics-symbol" aria-roledescription="bar" d="M281,300h18v0h-18Z" fill="#f58518"/><path aria-label="State: MT; Standards Met: 0; placement: Low" role="graphics-symbol" aria-roledescription="bar" d="M301,300h18v0h-18Z" fill="#f58518"/><path aria-label="State: ID; Standards Met: 0; placement: Low" role="graphics-symbol" aria-roledescription="bar" d="M321,300h18v0h-18Z" fill="#f58518"/><path aria-label="State: IN; Standards Met: 0; placement: Low" role="graphics-symbol" aria-roledescription="bar" d="M341,300h18v0h-18Z" fill="#f58518"/><path aria-label="State: SD; Standards Met: 0; placement: Low" role="graphics-symbol" aria-roledescription="bar" d="M361,300h18v0h-18Z" fill="#f58518"/><path aria-label="State: WY; Standards Met: 0; placement: Low" role="graphics-symbol" aria-roledescription="bar" d="M381,300h18v0h-18Z" fill="#f58518"/></g><g class="mark-group role-title"><g transform="translate(200,-22)"><path class="background" aria-hidden="true" d="M0,0h0v0h0Z" pointer-events="none"/><g><g class="mark-text role-title-text" role="graphics-symbol" aria-roledescription="title" aria-label="Title text 'Top 10 States with Most and Least Quality Standards Met'" pointer-events="none"><text text-anchor="middle" transform="translate(0,10)" font-family="sans-serif" font-size="13px" font-weight="bold" fill="#000" opacity="1">Top 10 States with Most and Least Quality Standards Met</text></g></g><path class="foreground" aria-hidden="true" d="" pointer-events="none" display="none"/></g></g></g><path class="foreground" aria-hidden="true" d="" display="none"/></g></g></g></svg>